<mxfile host="app.diagrams.net" agent="Mozilla/5.0 (X11; Linux x86_64; rv:137.0) Gecko/20100101 Firefox/137.0" version="26.2.12">
  <diagram name="Page-1" id="32Ac6YMxX5b__iqvDL5P">
    <mxGraphModel dx="2068" dy="1107" grid="1" gridSize="10" guides="1" tooltips="1" connect="1" arrows="1" fold="1" page="1" pageScale="1" pageWidth="850" pageHeight="1100" math="0" shadow="0">
      <root>
        <mxCell id="0" />
        <mxCell id="1" parent="0" />
        <mxCell id="QbfLQn-ZsOB05p9Na0rV-1" value="&lt;font style=&quot;font-size: 31px;&quot;&gt;EXECUTION&lt;/font&gt;" style="rounded=0;whiteSpace=wrap;html=1;" vertex="1" parent="1">
          <mxGeometry x="160" y="50" width="520" height="140" as="geometry" />
        </mxCell>
        <mxCell id="QbfLQn-ZsOB05p9Na0rV-2" value="" style="shape=flexArrow;endArrow=classic;html=1;rounded=0;" edge="1" parent="1">
          <mxGeometry width="50" height="50" relative="1" as="geometry">
            <mxPoint x="420" y="190" as="sourcePoint" />
            <mxPoint x="419.5" y="300" as="targetPoint" />
          </mxGeometry>
        </mxCell>
        <mxCell id="QbfLQn-ZsOB05p9Na0rV-4" value="&lt;font style=&quot;font-size: 20px;&quot;&gt;HUB EXEC&lt;/font&gt;" style="shape=process;whiteSpace=wrap;html=1;backgroundOutline=1;" vertex="1" parent="1">
          <mxGeometry x="200" y="300" width="440" height="60" as="geometry" />
        </mxCell>
        <mxCell id="QbfLQn-ZsOB05p9Na0rV-5" value="" style="endArrow=classic;html=1;rounded=0;entryX=0.5;entryY=0;entryDx=0;entryDy=0;" edge="1" parent="1" target="QbfLQn-ZsOB05p9Na0rV-6">
          <mxGeometry width="50" height="50" relative="1" as="geometry">
            <mxPoint x="250" y="360" as="sourcePoint" />
            <mxPoint x="140" y="470" as="targetPoint" />
          </mxGeometry>
        </mxCell>
        <mxCell id="QbfLQn-ZsOB05p9Na0rV-6" value="COMPTER LES REDIRECTIONS" style="rounded=0;whiteSpace=wrap;html=1;" vertex="1" parent="1">
          <mxGeometry x="80" y="480" width="120" height="60" as="geometry" />
        </mxCell>
        <mxCell id="QbfLQn-ZsOB05p9Na0rV-7" value="COMPTER LES PIPES" style="rounded=0;whiteSpace=wrap;html=1;" vertex="1" parent="1">
          <mxGeometry x="360" y="480" width="120" height="60" as="geometry" />
        </mxCell>
        <mxCell id="QbfLQn-ZsOB05p9Na0rV-8" value="" style="endArrow=classic;html=1;rounded=0;entryX=0.5;entryY=0;entryDx=0;entryDy=0;" edge="1" parent="1" target="QbfLQn-ZsOB05p9Na0rV-7">
          <mxGeometry width="50" height="50" relative="1" as="geometry">
            <mxPoint x="419.5" y="360" as="sourcePoint" />
            <mxPoint x="419.5" y="460" as="targetPoint" />
          </mxGeometry>
        </mxCell>
        <mxCell id="QbfLQn-ZsOB05p9Na0rV-9" value="COMPTER LES COMMANDES" style="rounded=0;whiteSpace=wrap;html=1;" vertex="1" parent="1">
          <mxGeometry x="640" y="480" width="120" height="60" as="geometry" />
        </mxCell>
        <mxCell id="QbfLQn-ZsOB05p9Na0rV-10" value="" style="endArrow=classic;html=1;rounded=0;exitX=0.83;exitY=1.033;exitDx=0;exitDy=0;exitPerimeter=0;entryX=0.5;entryY=0;entryDx=0;entryDy=0;" edge="1" parent="1" target="QbfLQn-ZsOB05p9Na0rV-9">
          <mxGeometry width="50" height="50" relative="1" as="geometry">
            <mxPoint x="589.9999999999998" y="360" as="sourcePoint" />
            <mxPoint x="654.8" y="398.02" as="targetPoint" />
          </mxGeometry>
        </mxCell>
        <mxCell id="QbfLQn-ZsOB05p9Na0rV-14" value="" style="endArrow=classic;html=1;rounded=0;exitX=0.5;exitY=1;exitDx=0;exitDy=0;entryX=0;entryY=0;entryDx=0;entryDy=0;" edge="1" parent="1" source="QbfLQn-ZsOB05p9Na0rV-6">
          <mxGeometry width="50" height="50" relative="1" as="geometry">
            <mxPoint x="200" y="620" as="sourcePoint" />
            <mxPoint x="320" y="640" as="targetPoint" />
          </mxGeometry>
        </mxCell>
        <mxCell id="QbfLQn-ZsOB05p9Na0rV-15" value="" style="endArrow=classic;html=1;rounded=0;entryX=0.5;entryY=0;entryDx=0;entryDy=0;exitX=0.5;exitY=1;exitDx=0;exitDy=0;" edge="1" parent="1" source="QbfLQn-ZsOB05p9Na0rV-7">
          <mxGeometry width="50" height="50" relative="1" as="geometry">
            <mxPoint x="400" y="560" as="sourcePoint" />
            <mxPoint x="420" y="640" as="targetPoint" />
          </mxGeometry>
        </mxCell>
        <mxCell id="QbfLQn-ZsOB05p9Na0rV-16" value="" style="endArrow=classic;html=1;rounded=0;entryX=1;entryY=0;entryDx=0;entryDy=0;exitX=0.5;exitY=1;exitDx=0;exitDy=0;" edge="1" parent="1" source="QbfLQn-ZsOB05p9Na0rV-9">
          <mxGeometry width="50" height="50" relative="1" as="geometry">
            <mxPoint x="570" y="620" as="sourcePoint" />
            <mxPoint x="520" y="640" as="targetPoint" />
          </mxGeometry>
        </mxCell>
        <mxCell id="QbfLQn-ZsOB05p9Na0rV-20" value="" style="endArrow=classic;html=1;rounded=0;exitX=0.361;exitY=0.967;exitDx=0;exitDy=0;exitPerimeter=0;entryX=0.5;entryY=0;entryDx=0;entryDy=0;" edge="1" parent="1" target="QbfLQn-ZsOB05p9Na0rV-22">
          <mxGeometry width="50" height="50" relative="1" as="geometry">
            <mxPoint x="113.32000000000016" y="540" as="sourcePoint" />
            <mxPoint x="30" y="641.98" as="targetPoint" />
            <Array as="points" />
          </mxGeometry>
        </mxCell>
        <mxCell id="QbfLQn-ZsOB05p9Na0rV-22" value="Stocker les FDs" style="whiteSpace=wrap;html=1;aspect=fixed;" vertex="1" parent="1">
          <mxGeometry y="640" width="80" height="80" as="geometry" />
        </mxCell>
        <mxCell id="QbfLQn-ZsOB05p9Na0rV-24" value="" style="endArrow=classic;html=1;rounded=0;exitX=0.75;exitY=1;exitDx=0;exitDy=0;entryX=0.5;entryY=0;entryDx=0;entryDy=0;" edge="1" parent="1" source="QbfLQn-ZsOB05p9Na0rV-9" target="QbfLQn-ZsOB05p9Na0rV-25">
          <mxGeometry width="50" height="50" relative="1" as="geometry">
            <mxPoint x="400" y="740" as="sourcePoint" />
            <mxPoint x="450" y="690" as="targetPoint" />
          </mxGeometry>
        </mxCell>
        <mxCell id="QbfLQn-ZsOB05p9Na0rV-25" value="Stocker les commandes" style="whiteSpace=wrap;html=1;aspect=fixed;" vertex="1" parent="1">
          <mxGeometry x="770" y="640" width="80" height="80" as="geometry" />
        </mxCell>
        <mxCell id="QbfLQn-ZsOB05p9Na0rV-26" value="&lt;font style=&quot;font-size: 17px;&quot;&gt;ENVOYER DANS LE PIPEX CORRESPONDANT&lt;/font&gt;" style="shape=process;whiteSpace=wrap;html=1;backgroundOutline=1;" vertex="1" parent="1">
          <mxGeometry x="320" y="640" width="200" height="80" as="geometry" />
        </mxCell>
        <mxCell id="QbfLQn-ZsOB05p9Na0rV-27" value="" style="endArrow=classic;html=1;rounded=0;" edge="1" parent="1">
          <mxGeometry width="50" height="50" relative="1" as="geometry">
            <mxPoint x="200" y="320" as="sourcePoint" />
            <mxPoint x="120" y="320" as="targetPoint" />
          </mxGeometry>
        </mxCell>
        <mxCell id="QbfLQn-ZsOB05p9Na0rV-28" value="Verifier si builtin" style="ellipse;whiteSpace=wrap;html=1;" vertex="1" parent="1">
          <mxGeometry y="280" width="120" height="80" as="geometry" />
        </mxCell>
      </root>
    </mxGraphModel>
  </diagram>
</mxfile>
